<svg width="25" height="26" viewBox="0 0 25 26" fill="none" xmlns="http://www.w3.org/2000/svg">
<path d="M12.4883 19L13.5621 17.9567L9.38259 13.746L18.4951 13.7578L18.497 12.2578L9.38453 12.246L13.5749 8.07169L12.5038 7.00005L6.49606 12.9923L12.4883 19Z" fill="#0F3952"/>
<path d="M12.5096 2.50009C14.5863 2.50278 16.6156 3.12122 18.3408 4.27721C20.066 5.4332 21.4097 7.07482 22.202 8.99447C22.9942 10.9141 23.1994 13.0256 22.7916 15.0619C22.3838 17.0981 21.3814 18.9678 19.911 20.4343C18.4407 21.9009 16.5685 22.8985 14.5311 23.301C12.4938 23.7035 10.3829 23.4928 8.46529 22.6956C6.54769 21.8984 4.90956 20.5505 3.75805 18.8223C2.60653 17.094 1.99334 15.0632 1.99603 12.9865C2.00281 10.2027 3.11354 7.53525 5.08453 5.56936C7.05552 3.60347 9.72582 2.49966 12.5096 2.50009ZM12.4844 22.0001C14.2644 22.0024 16.0051 21.4768 17.4865 20.4898C18.9678 19.5028 20.1232 18.0986 20.8065 16.455C21.4898 14.8113 21.6704 13.002 21.3254 11.2557C20.9804 9.50942 20.1253 7.90467 18.8682 6.64437C17.6112 5.38406 16.0086 4.52482 14.2633 4.17529C12.5179 3.82577 10.7081 4.00165 9.06265 4.68071C7.41723 5.35977 6.01013 6.5115 5.01928 7.99026C4.02843 9.46902 3.49834 11.2084 3.49603 12.9884C3.49572 15.3745 4.44186 17.6633 6.1269 19.3527C7.81194 21.0421 10.0983 21.9942 12.4844 22.0001Z" fill="#0F3952"/>
</svg>
