<svg width="25" height="24" viewBox="0 0 25 24" fill="none" xmlns="http://www.w3.org/2000/svg">
<path d="M12.5176 5.99994L11.4447 7.04435L15.6284 11.2509L6.51592 11.248L6.51545 12.748L15.6279 12.7509L11.4416 16.9294L12.5138 17.9999L18.5157 12.0018L12.5176 5.99994Z" fill="#0F3952"/>
<path d="M12.5129 22.4994C10.4362 22.4988 8.40633 21.8823 6.67998 20.728C4.95363 19.5737 3.60833 17.9334 2.81422 16.0145C2.0201 14.0957 1.81283 11.9844 2.21862 9.94771C2.62441 7.91104 3.62503 6.04044 5.09394 4.57245C6.56286 3.10446 8.4341 2.10502 10.471 1.70052C12.508 1.29602 14.6191 1.50462 16.5375 2.29995C18.4558 3.09527 20.0953 4.4416 21.2485 6.16868C22.4017 7.89576 23.0169 9.92602 23.0162 12.0027C23.0122 14.7865 21.9041 17.455 19.935 19.4229C17.9659 21.3907 15.2967 22.4971 12.5129 22.4994ZM12.5191 2.99941C10.739 2.99885 8.99881 3.52614 7.51845 4.51461C6.0381 5.50307 4.8841 6.90832 4.20239 8.55264C3.52068 10.197 3.34188 12.0065 3.6886 13.7524C4.03532 15.4984 4.89198 17.1023 6.15025 18.3614C7.40853 19.6204 9.0119 20.4781 10.7576 20.8259C12.5033 21.1737 14.313 20.9961 15.9577 20.3154C17.6025 19.6347 19.0085 18.4816 19.9979 17.0019C20.9873 15.5222 21.5157 13.7823 21.5162 12.0023C21.5142 9.61616 20.5658 7.32829 18.8791 5.64053C17.1924 3.95277 14.9052 3.00295 12.5191 2.99941Z" fill="#0F3952"/>
</svg>
