<svg width="16" height="16" viewBox="0 0 16 16" fill="none" xmlns="http://www.w3.org/2000/svg">
<path d="M14.5965 8.88952C14.5324 8.82525 14.4519 8.77966 14.3639 8.75764C14.2758 8.73562 14.1833 8.738 14.0965 8.76452C13.1431 9.05275 12.1294 9.07691 11.1633 8.83445C10.1973 8.59198 9.31513 8.09196 8.61085 7.38768C7.90657 6.6834 7.40655 5.80123 7.16408 4.83519C6.92162 3.86914 6.94578 2.85542 7.23401 1.90202C7.26076 1.81515 7.26332 1.72263 7.24142 1.63441C7.21951 1.54619 7.17398 1.4656 7.1097 1.40133C7.04543 1.33705 6.96484 1.29152 6.87662 1.26961C6.7884 1.24771 6.69588 1.25027 6.60901 1.27702C5.2909 1.6808 4.13372 2.49002 3.30213 3.58952C2.57489 4.55506 2.13129 5.70426 2.02117 6.90801C1.91105 8.11176 2.13878 9.32237 2.67876 10.4038C3.21875 11.4853 4.04959 12.3948 5.07796 13.03C6.10633 13.6653 7.29148 14.0013 8.50026 14.0001C9.91047 14.0044 11.2831 13.546 12.4078 12.6951C13.5073 11.8636 14.3165 10.7064 14.7203 9.38827C14.7467 9.30172 14.7492 9.20962 14.7274 9.12178C14.7056 9.03395 14.6603 8.95367 14.5965 8.88952ZM11.8065 11.8964C10.7475 12.6941 9.43594 13.0823 8.11335 12.9897C6.79076 12.8971 5.54613 12.3299 4.60859 11.3924C3.67105 10.4549 3.1037 9.21035 3.01099 7.88777C2.91827 6.56519 3.30643 5.25362 4.10401 4.19452C4.62363 3.50831 5.29542 2.95205 6.06651 2.56952C6.02258 2.87779 6.00044 3.18877 6.00026 3.50015C6.00208 5.2235 6.68748 6.87574 7.90607 8.09433C9.12466 9.31292 10.7769 9.99833 12.5003 10.0001C12.8123 10.0001 13.1239 9.97791 13.4328 9.9339C13.0499 10.7051 12.4932 11.3769 11.8065 11.8964Z" fill="black"/>
</svg>
